<?xml version="1.0" encoding="utf-8" ?>
<svg baseProfile="full" height="596.0px" version="1.1" viewBox="0 0 800.4000000000001 596.0" width="800.4000000000001px" xmlns="http://www.w3.org/2000/svg" xmlns:ev="http://www.w3.org/2001/xml-events" xmlns:xlink="http://www.w3.org/1999/xlink"><defs /><rect fill="white" height="596.0" width="800.4000000000001" x="0" y="0" /><text fill="#b00020" font-family="Arial" font-size="13px" x="10" y="20">Parcel 377-1 -- Maximized Footprint, Reverse + Roof Duplex (schematic) -- SCHEMATIC, requires licensed-architect review before permitting or construction</text><text fill="#333" font-family="Arial" font-size="11px" x="10" y="40">Parcel 377/1 -- Ereğli Mah., Karamursel, Kocaeli (maximized footprint, reverse + roof duplex) | Ada 377 / Parsel 1, Tapu Kutugu Eregli, Pafta G23D04D3D | A-106: Cati Piyesi Plani (Cati Dubleks Ust Kat) | 1:100 (schematic) | 2026-08-21</text><polygon fill="none" points="40.0,484.0 760.4000000000001,484.0 760.4000000000001,88.0 40.0,88.0" stroke="#c00" stroke-width="2" /><polygon fill="none" points="100.0,384.0 700.4000000000001,384.0 700.4000000000001,148.0 100.0,148.0" stroke="#999" stroke-width="1" /><polygon fill="#eaf3ff" points="100.0,384.0 640.0,384.0 640.0,284.0 100.0,284.0" stroke="#2266aa" stroke-width="1" /><polygon fill="#333" points="100.0,381.5 640.0,381.5 640.0,386.5 100.0,386.5" stroke="none" /><polygon fill="#333" points="637.5,384.0 637.5,284.0 642.5,284.0 642.5,384.0" stroke="none" /><polygon fill="#333" points="640.0,286.5 100.0,286.5 100.0,281.5 640.0,281.5" stroke="none" /><polygon fill="#333" points="102.5,284.0 102.5,384.0 97.5,384.0 97.5,284.0" stroke="none" /><polygon fill="#999" points="161.5,381.5 161.5,286.5 163.5,286.5 163.5,381.5" stroke="none" /><polygon fill="#999" points="102.5,328.5 162.5,328.5 162.5,330.5 102.5,330.5" stroke="none" /><polygon fill="#999" points="371.5,381.5 371.5,286.5 375.50000000000006,286.5 375.50000000000006,381.5" stroke="none" /><polygon fill="#999" points="166.5,381.5 166.5,351.5 168.5,351.5 168.5,381.5" stroke="none" /><polygon fill="#999" points="186.5,381.5 186.5,351.5 188.5,351.5 188.5,381.5" stroke="none" /><polygon fill="#999" points="167.5,350.5 187.5,350.5 187.5,352.5 167.5,352.5" stroke="none" /><polygon fill="#999" points="376.5,381.5 376.5,351.5 378.5,351.5 378.5,381.5" stroke="none" /><polygon fill="#999" points="396.5,381.5 396.5,351.5 398.5,351.5 398.5,381.5" stroke="none" /><polygon fill="#999" points="377.5,350.5 397.5,350.5 397.5,352.5 377.5,352.5" stroke="none" /><polygon fill="#999" points="582.5,381.5 582.5,286.5 584.5,286.5 584.5,381.5" stroke="none" /><polygon fill="#999" points="635.5,381.5 635.5,286.5 637.5000000000001,286.5 637.5000000000001,381.5" stroke="none" /><line stroke="#2266cc" stroke-width="4" x1="279.5" x2="255.50000000000006" y1="284.0" y2="284.0" /><line stroke="#2266cc" stroke-width="4" x1="491.50000000000006" x2="467.50000000000006" y1="284.0" y2="284.0" /><line stroke="#2266cc" stroke-width="4" x1="622.0" x2="598.0" y1="284.0" y2="284.0" /><line stroke="#2a7d46" stroke-width="4" x1="168.5" x2="186.5" y1="351.5" y2="351.5" /><line stroke="#2a7d46" stroke-width="4" x1="378.5" x2="396.5" y1="351.5" y2="351.5" /><polygon fill="none" points="102.5,328.5 161.5,328.5 161.5,286.5 102.5,286.5" stroke="#222" stroke-width="1" /><text fill="#111" font-family="Arial" font-size="11px" text-anchor="middle" x="132.0" y="301.5">Ortak Sahanlik</text><text fill="#555" font-family="Arial" font-size="10px" text-anchor="middle" x="132.0" y="315.5">6.2 m2</text><polygon fill="none" points="102.5,381.5 161.5,381.5 161.5,330.5 102.5,330.5" stroke="#222" stroke-width="1" /><text fill="#111" font-family="Arial" font-size="11px" text-anchor="middle" x="132.0" y="350.0">Merdiven + Asansor Cekirdegi</text><text fill="#555" font-family="Arial" font-size="10px" text-anchor="middle" x="132.0" y="364.0">7.5 m2</text><polygon fill="none" points="167.5,381.5 187.5,381.5 187.5,351.5 167.5,351.5" stroke="#222" stroke-width="1" /><text fill="#111" font-family="Arial" font-size="11px" text-anchor="middle" x="177.5" y="360.5">Cati Dubleks 1 Ic Merdiveni</text><text fill="#555" font-family="Arial" font-size="10px" text-anchor="middle" x="177.5" y="374.5">1.5 m2</text><polygon fill="none" points="377.5,381.5 397.5,381.5 397.5,351.5 377.5,351.5" stroke="#222" stroke-width="1" /><text fill="#111" font-family="Arial" font-size="11px" text-anchor="middle" x="387.5" y="360.5">Cati Dubleks 2 Ic Merdiveni</text><text fill="#555" font-family="Arial" font-size="10px" text-anchor="middle" x="387.5" y="374.5">1.5 m2</text><polygon fill="none" points="163.5,350.5 371.5,350.5 371.5,286.5 163.5,286.5" stroke="#222" stroke-width="1" /><text fill="#111" font-family="Arial" font-size="11px" text-anchor="middle" x="267.5" y="312.5">Cati Odasi</text><text fill="#555" font-family="Arial" font-size="10px" text-anchor="middle" x="267.5" y="326.5">33.3 m2</text><polygon fill="none" points="375.50000000000006,350.5 583.5,350.5 583.5,286.5 375.50000000000006,286.5" stroke="#222" stroke-width="1" /><text fill="#111" font-family="Arial" font-size="11px" text-anchor="middle" x="479.5" y="312.5">Cati Odasi</text><text fill="#555" font-family="Arial" font-size="10px" text-anchor="middle" x="479.5" y="326.5">33.3 m2</text><polygon fill="none" points="584.5,381.5 635.5,381.5 635.5,286.5 584.5,286.5" stroke="#222" stroke-width="1" /><text fill="#111" font-family="Arial" font-size="11px" text-anchor="middle" x="610.0" y="328.0">Mekanik Solar Ekipman Odasi</text><text fill="#555" font-family="Arial" font-size="10px" text-anchor="middle" x="610.0" y="342.0">12.1 m2</text><text fill="#333" font-family="Arial" font-size="11px" x="10" y="538.0">Lot: 36.02 m x 19.80 m (713.2 m2) -- Visual-proportion estimate off imardurumu.pdf/minuspalityimardurumu.pdf's plotted schema, anchored to the confirmed 713.26 m2 area -- not a surveyed dimension (see rationale.md).</text><text fill="#333" font-family="Arial" font-size="11px" x="10" y="552.0">This level's footprint: 135.0 m2 (informational -- TAKS/KAKS applicability of this specific level is a project-level design decision, see rationale.md; TAKS limit is 0.25) -- imardurumu.pdf / minuspalityimardurumu.pdf (TAKS/KAKS/setbacks/Kat Adedi); rear setback via Planli Alanlar Imar Yonetmeligi Madde 23(1)(c); max_height re-derived from plan notes item 4.2.4 + ground_floor_elevation, see rationale.md.</text><text fill="#333" font-family="Arial" font-size="11px" x="10" y="566.0">Red grade datum: 0.00 m | This level (Cati Piyesi): FFE +14.65 m, top +17.25 m above red grade -- see the compliance report for the applicable eave/ridge height check, not a raw comparison against zoning.max_height on this sheet.</text><text fill="#b00020" font-family="Arial" font-size="9px" x="10" y="584.0">SCHEMATIC DRAWING -- NOT FOR PERMIT OR CONSTRUCTION. Requires review, revision and stamp by a licensed architect before permitting or construction. Not a substitute for a structural/MEP engineer's calculations. No governmental review or approval implied or granted by this drawing.</text></svg>