<?xml version="1.0" encoding="utf-8" ?>
<svg baseProfile="full" height="596.0px" version="1.1" viewBox="0 0 800.4000000000001 596.0" width="800.4000000000001px" xmlns="http://www.w3.org/2000/svg" xmlns:ev="http://www.w3.org/2001/xml-events" xmlns:xlink="http://www.w3.org/1999/xlink"><defs /><rect fill="white" height="596.0" width="800.4000000000001" x="0" y="0" /><text fill="#b00020" font-family="Arial" font-size="13px" x="10" y="20">Parcel 377-1 -- Multi-Unit Apartment Building (schematic) -- SCHEMATIC, requires licensed-architect review before permitting or construction</text><text fill="#333" font-family="Arial" font-size="11px" x="10" y="40">Parcel 377/1 -- Ereğli Mah., Karamursel, Kocaeli (multi-unit apartment building) | Ada 377 / Parsel 1, Tapu Kutugu Eregli, Pafta G23D04D3D | A-106: Cati Piyesi Plani | 1:100 (schematic) | 2026-08-20</text><polygon fill="none" points="40.0,484.0 760.4000000000001,484.0 760.4000000000001,88.0 40.0,88.0" stroke="#c00" stroke-width="2" /><polygon fill="none" points="100.0,384.0 700.4000000000001,384.0 700.4000000000001,148.0 100.0,148.0" stroke="#999" stroke-width="1" /><polygon fill="#eaf3ff" points="100.0,384.0 250.29382986043586,384.0 250.29382986043586,308.8530850697821 100.0,308.8530850697821" stroke="#2266aa" stroke-width="1" /><polygon fill="#333" points="100.0,381.5 250.29382986043586,381.5 250.29382986043586,386.5 100.0,386.5" stroke="none" /><polygon fill="#333" points="247.79382986043586,384.0 247.79382986043586,308.8530850697821 252.79382986043586,308.8530850697821 252.79382986043586,384.0" stroke="none" /><polygon fill="#333" points="250.29382986043586,311.3530850697821 100.0,311.3530850697821 100.0,306.3530850697821 250.29382986043586,306.3530850697821" stroke="none" /><polygon fill="#333" points="102.5,308.8530850697821 102.5,384.0 97.5,384.0 97.5,308.8530850697821" stroke="none" /><polygon fill="#999" points="161.5,381.5 161.5,311.3530850697821 163.5,311.3530850697821 163.5,381.5" stroke="none" /><polygon fill="#999" points="102.5,328.5 162.5,328.5 162.5,330.5 102.5,330.5" stroke="none" /><polygon fill="#999" points="225.7203723953269,381.5 225.7203723953269,311.3530850697821 227.72037239532693,311.3530850697821 227.72037239532693,381.5" stroke="none" /><line stroke="#2266cc" stroke-width="4" x1="207.11018619766347" x2="183.11018619766344" y1="308.8530850697821" y2="308.8530850697821" /><line stroke="#2266cc" stroke-width="4" x1="241.79382986043584" x2="232.7203723953269" y1="308.8530850697821" y2="308.8530850697821" /><line stroke="#2a7d46" stroke-width="4" x1="162.5" x2="162.5" y1="365.5" y2="345.5" /><polygon fill="none" points="102.5,328.5 161.5,328.5 161.5,311.3530850697821 102.5,311.3530850697821" stroke="#222" stroke-width="1" /><text fill="#111" font-family="Arial" font-size="11px" text-anchor="middle" x="132.0" y="313.92654253489104">Ortak Sahanlik</text><text fill="#555" font-family="Arial" font-size="10px" text-anchor="middle" x="132.0" y="327.92654253489104">2.5 m2</text><polygon fill="none" points="102.5,381.5 161.5,381.5 161.5,330.5 102.5,330.5" stroke="#222" stroke-width="1" /><text fill="#111" font-family="Arial" font-size="11px" text-anchor="middle" x="132.0" y="350.0">Merdiven + Asansor Cekirdegi</text><text fill="#555" font-family="Arial" font-size="10px" text-anchor="middle" x="132.0" y="364.0">7.5 m2</text><polygon fill="none" points="163.5,381.5 225.7203723953269,381.5 225.7203723953269,311.3530850697821 163.5,311.3530850697821" stroke="#222" stroke-width="1" /><text fill="#111" font-family="Arial" font-size="11px" text-anchor="middle" x="194.61018619766344" y="340.42654253489104">Kapali Teras Odasi</text><text fill="#555" font-family="Arial" font-size="10px" text-anchor="middle" x="194.61018619766344" y="354.42654253489104">10.9 m2</text><polygon fill="none" points="227.72037239532693,381.5 247.79382986043586,381.5 247.79382986043586,311.3530850697821 227.72037239532693,311.3530850697821" stroke="#222" stroke-width="1" /><text fill="#111" font-family="Arial" font-size="11px" text-anchor="middle" x="237.7571011278814" y="340.42654253489104">Mekanik Solar Ekipman Odasi</text><text fill="#555" font-family="Arial" font-size="10px" text-anchor="middle" x="237.7571011278814" y="354.42654253489104">3.5 m2</text><text fill="#333" font-family="Arial" font-size="11px" x="10" y="538.0">Lot: 36.02 m x 19.80 m (713.2 m2) -- Visual-proportion estimate off imardurumu.pdf/minuspalityimardurumu.pdf's plotted schema, anchored to the confirmed 713.26 m2 area -- not a surveyed dimension (see rationale.md).</text><text fill="#333" font-family="Arial" font-size="11px" x="10" y="552.0">This level's footprint: 28.2 m2 (informational -- TAKS/KAKS applicability of this specific level is a project-level design decision, see rationale.md; TAKS limit is 0.25) -- imardurumu.pdf / minuspalityimardurumu.pdf (TAKS/KAKS/setbacks/Kat Adedi); rear setback via Planli Alanlar Imar Yonetmeligi Madde 23(1)(c); max_height re-derived from plan notes item 4.2.4 + ground_floor_elevation, see rationale.md Section 1.</text><text fill="#333" font-family="Arial" font-size="11px" x="10" y="566.0">Red grade datum: 0.00 m | This level (Cati Piyesi): FFE +14.65 m, top +17.25 m above red grade -- see the compliance report for the applicable eave/ridge height check, not a raw comparison against zoning.max_height on this sheet.</text><text fill="#b00020" font-family="Arial" font-size="9px" x="10" y="584.0">SCHEMATIC DRAWING -- NOT FOR PERMIT OR CONSTRUCTION. Requires review, revision and stamp by a licensed architect before permitting or construction. Not a substitute for a structural/MEP engineer's calculations. No governmental review or approval implied or granted by this drawing.</text></svg>